<svg version="1.1" viewBox="0 0 1600 1600" width="1280" height="1280" xmlns="http://www.w3.org/2000/svg">
<path transform="translate(0)" d="m0 0h1600v1600h-1600z" fill="#682D75"/>
<path transform="translate(937,305)" d="m0 0h11l23 2 25 6 16 6 13 7 12 9 10 9 9 10 9 13 8 16 6 17 6 24 5 29 4 40 3 57 1 37v128l2 4 5 8 1 4 3-9 10-56 17-85 13-55 8-29 12-38 11-28 8-18 12-21 9-13 9-12 15-16 15-13 16-10 16-8 15-5 25-4h38l30 4 20 5 19 7 24 12 13 9 14 11 12 12 12 16 11 19 8 19 6 23 3 23v26l-3 30-7 39-9 37-10 36-13 40-16 44-16 40-13 31-16 36-11 24-13 28-20 41-27 54-12 22-12 24-12 22-16 30-12 22-16 29-13 22-10 15-7 11-11 13-9 11-8 7-12 11-14 10-16 10-21 10-21 7-23 5-18 2h-26l-27-3-25-5-20-6-20-8-17-8-18-11-16-12-17-16-13-13-11-14-16-24-12-21-14-30-11-29-12-37-11-40-12-52-8-44-9-58-5-46-4-52-2-35-1-32v-28l1-36 4-55 8-71 5-28 6-23 8-22 8-16 11-17 9-11 13-13 14-11 19-11 10-5 15-5 23-5z" fill="#FEFEFE"/>
<path transform="translate(359,338)" d="m0 0h29l38 3 27 4 23 6 19 8 19 10 11 6 30 20 17 13 11 9 14 12 25 25 9 11 9 10 11 14 14 19 14 21 17 29 19 38 11 25 11 30 7 25 6 32 4 35 2 41v55l-1 21-5 40-6 32-8 36-9 31-7 20-10 25-10 22-10 19-11 19-14 21-11 16-18 22-10 11-7 8-8 8-8 7-11 10-11 9-16 12-15 10-14 9-18 10-21 10-19 6-26 5-22 3-16 1h-37l-23-2-26-4-24-5-20-6-15-6-15-8-10-8-7-7-9-14-4-10-6-25-14-71-12-66-10-56-20-116-8-49-10-62-13-85-19-135-6-48-3-42v-20l8-17 9-11 9-9 14-10 14-9 23-11 16-6 29-8 26-6 36-6 42-4z" fill="#FEFEFE"/>
<path transform="translate(390,636)" d="m0 0h22l16 4 13 7 12 11 8 10 7 12 7 16 7 21 5 25 1 10v32l-4 24-9 36-9 22-8 16-12 19-10 13-5 5-7 1-2-4-3-26-6-29-11-66-16-81-9-37-5-25 1-9 6-5z" fill="#682D75"/>
</svg>
