<svg version="1.1" viewBox="0 0 1600 1600" width="1280" height="1280" xmlns="http://www.w3.org/2000/svg">
<path transform="translate(0)" d="m0 0h1600v1600h-1600z" fill="#682D75"/>
<path transform="translate(374,334)" d="m0 0h42l24 2 31 4 25 6 21 8 16 8 23 13 22 15 13 10 13 11 11 9 15 14 9 9 7 8 11 12 9 11 12 15 13 18 11 17 12 20 14 27 11 23 8 19 10 29 7 23 6 29 4 27 3 35 1 25v49l-2 33-3 28-6 35-9 40-11 36-12 32-11 24-12 23-8 14-11 17-10 15-12 16-11 13-9 11-22 22-8 7-9 8-14 11-18 13-15 10-20 12-16 8-16 7-16 5-16 3-40 4h-47l-37-4-24-4-22-6-21-8-16-9-9-7-10-10-8-14-5-12-5-21-13-73-13-75-18-109-15-95-15-101-10-71-10-77-6-50-4-45-3-42 1-17 5-10 10-13 9-9 17-13 22-12 14-6 24-8 31-8 32-6 43-5z" fill="#FEFFFE"/>
<path transform="translate(1039,294)" d="m0 0h54l34 2 45 4 29 4 38 7 36 8 29 8 29 10 26 11 25 12 24 14 16 12 11 9 16 16 10 13 10 15 8 16 6 15 6 21 2 14v26l-4 26-5 19-8 21-8 14-12 17-13 10-14 8-19 7-17 4-27 3-15 1h-45l-39-3h-5l2 24 5 102 1 24 1 41v90l-1 31-4 48-6 45-7 40-8 32-10 30-9 20-10 19-13 18-11 12-12 11-13 8-17 7-20 5h-29l-19-3-31-7-20-6-19-8-19-10-13-10-10-9-9-10-9-13-8-16-6-15-7-27-4-26-1-11v-42l3-37 6-47 5-38 10-60 11-64 9-50 12-70 9-53 4-26-14-2-44-8-24-7-25-10-17-8-13-9-13-11-10-10-13-18-10-21-6-20-4-22v-29l4-23 8-20 7-12 11-13 13-13 18-13 18-10 17-8 25-8 31-8 30-5 39-4z" fill="#FEFFFE"/>
<path transform="translate(414,632)" d="m0 0h24l15 4 12 6 10 9 9 11 10 17 6 15 5 16 4 19 2 18v31l-3 24-6 25-9 27-12 25-7 10-9 12-7 9-10 7h-3l-8-55-8-47-9-50-8-43-10-48-5-26v-9l4-4 6-2z" fill="#682D75"/>
</svg>
