<?xml version="1.0" encoding="UTF-8"?>
<svg version="1.1" viewBox="0 0 1600 1600" width="1280" height="1280" xmlns="http://www.w3.org/2000/svg">
<path transform="translate(0)" d="m0 0h1600v1600h-1600z" fill="#682D76"/>
<path transform="translate(409,197)" d="m0 0h43l30 3 24 4 21 6 21 9 18 10 20 13 10 8 14 12 11 11 9 11 11 14 11 16 12 19 9 16 12 23 16 35 11 27 10 26 12 34 13 38 14 43 12 38 16 55 10 38 10 44 7 37 8 49 5 40 2 24v49l-3 30-5 30-5 19-9 24-8 15-14 20-10 10-14 11-18 10-20 7-25 5-21 2h-19l-22-3-21-6-16-8-12-8-12-11-11-15-9-16-10-25-6-21-5-20-2-3-41 6-31 6-31 7-3 1 1 9 6 19 3 17 1 12v12l-1 16-5 23-8 20-8 15-12 16-10 11-17 12-16 8-19 6-25 5-8 1h-21l-20-3-25-7-21-9-15-9-14-11-12-12-9-11-11-15-14-24-12-26-11-30-8-27-7-29-6-31-6-43-3-32-2-39v-56l2-43 5-57 6-58 6-42 9-53 8-40 16-64 12-36 10-25 13-29 12-22 9-14 8-12 12-16 11-13 11-12 13-13 14-11 10-7 18-11 16-8 21-8 23-6 21-4z" fill="#FEFEFE"/>
<path transform="translate(985,196)" d="m0 0h23l23 3 19 5 15 6 13 7 12 9 12 11 11 13 8 13 7 14 6 18 4 17 4 29 3 35 1 19 1 48v111l-2 49v27l1 1-1 10v5h3l3-12 6-23 10-50 17-77 16-63 16-50 8-22 11-26 10-19 11-18 8-11 8-10 11-12 14-13 20-13 17-8 23-6 18-3h29l30 4 23 5 18 6 21 10 18 11 14 11 11 10 9 11 10 14 11 21 7 19 4 17 2 14v45l-5 32-7 31-10 38-12 38-15 42-12 30-15 36-16 36-16 34-9 20-21 42-10 19-19 37-12 22-13 24-12 22-15 27-14 25-10 17-11 19-14 24-11 18-12 18-11 15-12 14-14 14-10 8-15 11-21 12-25 10-21 6-19 4-9 1h-28l-27-4-30-7-30-10-17-8-19-11-14-10-11-9-12-11-7-8-12-14-14-20-9-15-10-18-10-22-8-20-12-36-13-44-7-33-10-59-6-45-8-68-3-35-2-31v-75l3-56 6-69 4-37 4-24 9-36 8-24 8-16 9-15 11-14 10-11 11-9 13-10 16-9 14-6 17-5 17-3z" fill="#FEFEFE"/>
<path transform="translate(408,451)" d="m0 0h6l6 4 4 6 8 28 10 43 7 35 10 56 6 36 11 80 1 8v9l-4 2-54 7h-14l-2-11-4-74-1-27-1-58v-36l1-60 1-26 2-13 3-6z" fill="#682D76"/>
</svg>
