<?xml version="1.0" encoding="UTF-8"?>
<svg version="1.1" viewBox="0 0 1600 1600" width="1280" height="1280" xmlns="http://www.w3.org/2000/svg">
<path transform="translate(0)" d="m0 0h1600v1600h-1600z" fill="#672C74"/>
<path transform="translate(997,295)" d="m0 0h20l24 3 19 5 16 7 12 7 14 10 10 10 9 12 11 17 11 24 5 15 6 25 6 37 6 59 5 61 4 71 2 43 2 79v72l-1 45-2 42-4 46-7 51-6 34-8 33-12 36-9 21-10 18-16 23-18 18-16 10-14 7-20 6-19 3h-20l-20-3-15-4-16-6-17-9-15-11-12-11-8-8-9-11-14-19-13-22-12-23-14-29-14-34-24-64-15-44-15-42-12-36-5-10-2-1 6 29 5 33 4 36 2 40v68l-2 28-4 28-6 27-7 22-7 17-10 18-10 14-14 15-11 8-14 7-15 5-16 2h-18l-21-2-21-5-21-9-15-9-10-8-9-8-7-8-10-13-8-13-10-19-9-25-7-25-8-38-5-31-5-49-3-51-1-36v-61l2-97 3-71 5-69 6-65 5-37 7-30 10-27 10-19 8-14 12-16 9-11 11-12 13-12 13-10 14-9 25-12 14-4 15-3 9-1h22l19 3 18 6 15 8 14 10 15 13 9 9 9 11 11 14 11 16 10 17 13 24 11 23 15 34 13 32 14 43 14 49 9 33 15 45 3 2-7-32-7-46-7-47-8-46-5-46-3-41v-30l3-26 6-22 8-16 10-17 9-11 14-14 12-9 18-10 14-5 19-4z" fill="#FEFEFE"/>
</svg>
