<?xml version="1.0" encoding="UTF-8"?>
<svg version="1.1" viewBox="0 0 1600 1600" width="1280" height="1280" xmlns="http://www.w3.org/2000/svg">
<path transform="translate(0)" d="m0 0h1600v1600h-1600z" fill="#682D75"/>
<path transform="translate(1028,292)" d="m0 0h65l48 3 37 4 31 6 25 7 24 8 22 9 19 10 18 10 21 14 16 12 14 12 16 16 9 11 12 15 16 24 12 22 10 21 9 23 12 36 7 26 6 32 2 18 1 19v17l-2 28-4 25-6 26-11 33-9 20-12 22-9 14-10 14-13 16-7 7-7 8-16 15-13 10-14 10-18 11-22 12-29 12-27 9-26 6-26 4-34 3-18 1h-50l1 13v101l-3 31-4 23-6 21-9 21-10 16-11 13-8 8-8 6-10 6-12 5-16 5-21 4-17 2h-24l-25-3-30-7-21-8-18-10-10-8-9-8-9-11-10-14-9-16-8-20-6-19-8-32-5-27-4-33-2-40-2 1-7 25-9 22-9 17-8 16-11 20-9 14-11 16-13 18-10 12-9 11-28 28-11 9-13 11-18 13-20 13-15 9-23 12-15 6-15 4-25 4-27 2-30 1-35-2-32-4-23-5-21-7-18-8-12-7-10-9-7-7-9-15-6-20-7-37-18-102-12-74-9-55-10-64-17-114-8-59-10-75-10-82-3-32-3-44v-27l6-12 9-12 11-11 12-9 20-12 15-7 30-10 36-9 30-5 32-4 26-2 20-1h35l31 2 29 4 24 6 25 10 26 14 24 16 19 14 13 11 14 12 25 25 7 8 13 15 11 14 12 16 14 21 15 25 19 38 13 28 11 28 8 28 5 23 3 18h3l1-25 7-73 9-74 6-37 10-47 7-26 7-21 10-24 7-14 10-17 10-13 11-12 10-8 16-9 15-6 24-5 27-3z" fill="#FEFFFE"/>
<path transform="translate(432,631)" d="m0 0h19l14 3 12 5 11 8 10 12 8 13 8 17 7 22 4 21 2 27-1 24-4 24-5 19-8 24-11 24-12 18-12 16-9 8-4 1-3-13-4-31-7-43-8-45-9-50-13-66-4-21-1-10 3-4z" fill="#682D75"/>
<path transform="translate(1119,528)" d="m0 0 16 3 17 6 16 8 9 7 11 11 8 15 3 10v23l-4 16-9 21-8 14-12 16-11 13-11 12-10 9-12 11-8 7-10 6-6 3-4-1 4-86 4-40 6-40 7-36 3-7z" fill="#682D75"/>
</svg>
