<?xml version="1.0" encoding="UTF-8"?>
<svg version="1.1" viewBox="0 0 1600 1600" width="1280" height="1280" xmlns="http://www.w3.org/2000/svg">
  <path transform="translate(0)" d="m0 0h1600v1600h-1600z" fill="#682D75"/>
  <path transform="translate(1142,292)" d="m0 0h27l35 3 29 5 21 6 20 8 25 12 27 16 19 14 10 8 12 11 19 19 9 11 11 14 11 17 12 21 9 20 9 25 5 18 4 24 1 10v17l-3 27-6 26-6 18-9 19-9 15-9 12-11 12-17 13-21 10-16 5-17 3h-35l-20-3-15-4-14-6-15-10-11-9-10-11-10-15-5-10-5-16-1-5v-8l2-8v-8l-4-13-6-10-1-1h-7l-2 5-8 16-16 33-16 36-20 49-14 39-12 36-10 38-6 29-4 28-1 11v26l3 14 4 11 7 9 8 6 9 4 4 1h11l9-4 11-7 10-10 6-9 2-6v-10l-4-8-6-5-19-11-11-6-5-7-2-7-1-15 4-20 5-12 6-10 7-8 15-10 15-6 22-4 17-1h39l40 2 35 4 23 5 17 5 19 8 11 8 10 9 9 13 7 14 5 16 3 19v18l-3 29-5 29-7 32-12 36-11 26-10 20-14 23-12 17-10 13-10 11-7 8-11 11-11 9-12 10-15 10-16 10-23 12-19 8-22 7-27 6-26 4-10 1h-39l-25-3-30-5-26-7-27-10-27-13-19-12-16-13-8-7-18-18-9-11-10-13-9-14-10-18-8-16-10-22-12-34-9-30-7-30-3-17-4-34-2 7-3 18-6 20-12 32-11 26-16 32-9 16-15 24-13 18-11 14-11 13-11 12-1 2h-2l-2 4-6 5-12 12-11 9-12 10-20 14-17 11-21 12-25 12-21 7-20 4-26 2-19 1h-31l-36-3-24-4-26-7-22-8-16-8-11-8-10-10-9-13-7-22-9-47-15-90-9-58-14-92-10-68-13-93-10-77-9-74-7-61-4-48-2-38v-21l5-12 10-14 8-8 12-9 22-13 20-9 27-9 29-7 27-5 32-4 26-2 28-1h30l29 1 28 3 19 4 20 6 18 8 16 8 20 12 12 8 18 13 14 11 12 11 8 7 21 21 7 8 11 13 13 17 15 20 11 17 14 24 14 27 9 19 12 30 12 36 6 23 5 26 2 15 1 2h2l2-15 9-40 8-30 16-47 11-29 8-19 9-20 13-27 12-21 6-11 12-19 13-19 14-18 9-11 9-10 7-8 22-22 11-9 14-11 22-14 19-9 22-8 21-5 31-4z" fill="#FEFEFE"/>
  <path transform="translate(456,627)" d="m0 0h11l15 3 10 4 10 8 10 11 9 14 8 17 7 22 4 21 2 22v16l-3 26-6 25-8 25-7 16-10 19-7 10-7 11-8 10-7 4-5-1-2-4-3-30-13-79-10-61-12-62-5-24-3-12v-6l3-2z" fill="#682D75"/>
</svg>
