
<svg version="1.1" viewBox="0 0 1600 1600" width="1280" height="1280" xmlns="http://www.w3.org/2000/svg">
  <path transform="translate(0)" d="m0 0h1600v1600h-1600z" fill="#662C75"/>
  <path transform="translate(773,169)" d="m0 0h61l30 2 32 5 30 8 27 9 21 9 16 8 19 10 23 14 14 10 15 11 11 9 12 11 10 9 7 8 10 11 10 13 13 18 11 17 10 18 11 24 10 26 8 28 5 26 2 20v26l-3 24-5 23-8 24-9 20-8 14-9 13-8 10-11 13-10 9-9 7-14 9-17 8-15 5-18 4-22 2-23-2-32-6-21-6-21-8-22-12-13-9-15-13-9-9-12-16-9-16-7-18-8-30-5-19-4-8-3-2h-6l-9 6-4 5-4 7-3 14-3 46-2 58-4 91-7 121-1 31v45l1 23 4 35 6 26 5 12 9 13 9 6 7 2 12-1 14-4 25-13 17-12 11-8 14-11 11-9 13-11 8-7 13-11 14-11 13-10 17-12 13-8 17-10 16-8 21-8 19-5 7-1h25l20 4 15 6 12 8 8 7 7 8 10 14 11 21 7 19 6 22 4 22 3 26 1 17v47l-2 27-6 37-7 31-8 25-8 20-8 17-14 24-8 12-14 19-9 10-7 8-17 17-10 8-13 10-14 10-15 9-23 12-21 9-36 12-36 9-21 4-32 4-29 3-16 1h-53l-20-2-32-5-27-6-26-8-22-8-25-11-19-10-22-13-13-9-16-13-14-12-37-37-9-11-8-9-12-16-18-27-12-20-18-35-12-26-11-27-12-35-10-36-9-38-7-36-5-35-3-34-3-53-1-26v-64l3-57 3-37 7-56 7-45 9-46 10-42 10-35 15-43 15-36 16-32 6-11 6-10 10-16 13-19 14-18 10-12 7-8 15-16 7-6 5-5 8-7 10-8 11-8 17-12 10-6 21-12 25-11 36-12 23-6 22-4z" fill="#FDFDFD"/>
</svg>