<?xml version="1.0" encoding="UTF-8"?>
<svg version="1.1" viewBox="0 0 1600 1600" width="1280" height="1280" xmlns="http://www.w3.org/2000/svg">
<path transform="translate(0)" d="m0 0h1600v1600h-1600z" fill="#672D74"/>
<path transform="translate(825,261)" d="m0 0h20l29 2 27 4 21 5 20 7 20 9 16 8 22 13 19 13 11 9 10 9 15 15 13 17 10 16 8 16 6 19 2 13v11l-2 16-5 16-7 16-12 20-10 13-17 17-15 10-15 8-15 5-16 3h-14l-17-3-10-4-12-9-8-10-8-16-7-20-9-27-6-8-8-4-13-2-12 3-11 6-8 7-8 13-5 14-2 18 1 15 5 15 9 16 11 14 11 12 8 8 11 9 14 11 19 14 33 22 15 11 34 24 17 13 14 12 12 11 16 16 9 11 10 12 13 19 8 13 12 23 10 22 9 28 6 25 4 28 1 19v16l-2 23-5 28-5 19-7 20-9 20-10 19-9 14-10 14-10 13-10 11-7 8-12 12-11 9-10 8-14 10-14 9-17 10-23 12-25 10-22 7-26 6-23 3-17 1h-21l-20-1-29-4-24-5-28-7-29-10-26-11-22-10-23-13-18-12-10-8-13-11-9-9-6-5-7-8-11-13-11-17-12-23-7-19-4-20v-20l3-15 5-16 7-14 9-14 9-11 10-10 10-7 12-5 9 1 18 6 37 17 27 13 25 10 22 6 13 2h21l14-3 10-5 6-5 9-12 4-12v-15l-4-15-10-19-10-13-14-14-14-11-17-13-14-10-34-23-15-11-18-14-12-11-8-7-13-14-11-14-8-10-10-15-11-19-9-17-11-26-8-24-7-26-5-28-1-11v-43l5-33 7-28 11-29 8-17 11-19 12-17 8-10 7-9 9-10 22-22 13-10 14-10 17-11 18-10 22-10 35-12 24-6 23-4 19-2z" fill="#FDFDFD"/>
</svg>
